<mxfile host="app.diagrams.net" modified="2021-05-31T19:23:01.051Z" agent="5.0 (Windows NT 10.0; Win64; x64) AppleWebKit/537.36 (KHTML, like Gecko) Chrome/90.0.4430.212 Safari/537.36" etag="6GHTihcs4MF4knb_IuCb" version="14.6.13" type="github">
  <diagram id="R2lEEEUBdFMjLlhIrx00" name="Page-1">
    <mxGraphModel dx="2577" dy="919" grid="1" gridSize="10" guides="1" tooltips="1" connect="1" arrows="1" fold="1" page="1" pageScale="1" pageWidth="850" pageHeight="1100" math="0" shadow="0" extFonts="Permanent Marker^https://fonts.googleapis.com/css?family=Permanent+Marker">
      <root>
        <mxCell id="0" />
        <mxCell id="1" parent="0" />
        <mxCell id="Gx7OEkdX1rcepquk946P-1" value="&lt;b&gt;Luogo&lt;/b&gt;" style="rounded=0;whiteSpace=wrap;html=1;" vertex="1" parent="1">
          <mxGeometry x="-70" y="360" width="120" height="60" as="geometry" />
        </mxCell>
        <mxCell id="mw7v7OqiFIPlVH7VP6Rh-20" style="edgeStyle=orthogonalEdgeStyle;rounded=0;orthogonalLoop=1;jettySize=auto;html=1;endArrow=none;endFill=0;" edge="1" parent="1" source="mw7v7OqiFIPlVH7VP6Rh-3" target="mw7v7OqiFIPlVH7VP6Rh-33">
          <mxGeometry relative="1" as="geometry">
            <mxPoint x="30" y="550" as="targetPoint" />
          </mxGeometry>
        </mxCell>
        <mxCell id="mw7v7OqiFIPlVH7VP6Rh-38" style="edgeStyle=orthogonalEdgeStyle;rounded=0;orthogonalLoop=1;jettySize=auto;html=1;endArrow=none;endFill=0;" edge="1" parent="1" source="mw7v7OqiFIPlVH7VP6Rh-3" target="mw7v7OqiFIPlVH7VP6Rh-36">
          <mxGeometry relative="1" as="geometry">
            <mxPoint x="280" y="310.0000000000001" as="targetPoint" />
            <Array as="points">
              <mxPoint x="180" y="150" />
            </Array>
          </mxGeometry>
        </mxCell>
        <mxCell id="mw7v7OqiFIPlVH7VP6Rh-54" style="edgeStyle=orthogonalEdgeStyle;rounded=0;orthogonalLoop=1;jettySize=auto;html=1;endArrow=none;endFill=0;" edge="1" parent="1" source="mw7v7OqiFIPlVH7VP6Rh-3" target="mw7v7OqiFIPlVH7VP6Rh-53">
          <mxGeometry relative="1" as="geometry" />
        </mxCell>
        <mxCell id="mw7v7OqiFIPlVH7VP6Rh-3" value="&lt;b&gt;Cliente&lt;/b&gt;" style="rounded=0;whiteSpace=wrap;html=1;" vertex="1" parent="1">
          <mxGeometry x="120" y="520" width="120" height="60" as="geometry" />
        </mxCell>
        <mxCell id="mw7v7OqiFIPlVH7VP6Rh-24" style="edgeStyle=orthogonalEdgeStyle;rounded=0;orthogonalLoop=1;jettySize=auto;html=1;endArrow=none;endFill=0;" edge="1" parent="1" source="mw7v7OqiFIPlVH7VP6Rh-4" target="mw7v7OqiFIPlVH7VP6Rh-32">
          <mxGeometry relative="1" as="geometry">
            <mxPoint x="1100" y="190" as="targetPoint" />
          </mxGeometry>
        </mxCell>
        <mxCell id="mw7v7OqiFIPlVH7VP6Rh-4" value="&lt;b&gt;Lavoratore&lt;/b&gt;" style="rounded=0;whiteSpace=wrap;html=1;" vertex="1" parent="1">
          <mxGeometry x="1040" y="240" width="120" height="60" as="geometry" />
        </mxCell>
        <mxCell id="mw7v7OqiFIPlVH7VP6Rh-11" style="edgeStyle=orthogonalEdgeStyle;rounded=0;orthogonalLoop=1;jettySize=auto;html=1;entryX=0.5;entryY=0;entryDx=0;entryDy=0;endArrow=none;endFill=0;exitX=0.5;exitY=0;exitDx=0;exitDy=0;" edge="1" parent="1" source="mw7v7OqiFIPlVH7VP6Rh-5" target="mw7v7OqiFIPlVH7VP6Rh-6">
          <mxGeometry relative="1" as="geometry">
            <Array as="points">
              <mxPoint x="100" y="640" />
              <mxPoint x="260" y="640" />
            </Array>
          </mxGeometry>
        </mxCell>
        <mxCell id="mw7v7OqiFIPlVH7VP6Rh-5" value="&lt;b&gt;Privato&lt;/b&gt;" style="rounded=0;whiteSpace=wrap;html=1;" vertex="1" parent="1">
          <mxGeometry x="40" y="680" width="120" height="60" as="geometry" />
        </mxCell>
        <mxCell id="mw7v7OqiFIPlVH7VP6Rh-6" value="&lt;b&gt;Azienda&lt;/b&gt;" style="rounded=0;whiteSpace=wrap;html=1;" vertex="1" parent="1">
          <mxGeometry x="200" y="680" width="120" height="60" as="geometry" />
        </mxCell>
        <mxCell id="mw7v7OqiFIPlVH7VP6Rh-14" style="edgeStyle=orthogonalEdgeStyle;rounded=0;orthogonalLoop=1;jettySize=auto;html=1;exitX=0.5;exitY=0;exitDx=0;exitDy=0;entryX=0.5;entryY=0;entryDx=0;entryDy=0;endArrow=none;endFill=0;" edge="1" parent="1" source="mw7v7OqiFIPlVH7VP6Rh-7" target="mw7v7OqiFIPlVH7VP6Rh-10">
          <mxGeometry relative="1" as="geometry">
            <Array as="points">
              <mxPoint x="1100" y="360" />
              <mxPoint x="1260" y="360" />
            </Array>
          </mxGeometry>
        </mxCell>
        <mxCell id="mw7v7OqiFIPlVH7VP6Rh-7" value="&lt;b&gt;Dipendente&lt;/b&gt;" style="rounded=0;whiteSpace=wrap;html=1;" vertex="1" parent="1">
          <mxGeometry x="1040" y="400" width="120" height="60" as="geometry" />
        </mxCell>
        <mxCell id="mw7v7OqiFIPlVH7VP6Rh-13" style="edgeStyle=orthogonalEdgeStyle;rounded=0;orthogonalLoop=1;jettySize=auto;html=1;entryX=0.5;entryY=0;entryDx=0;entryDy=0;endArrow=none;endFill=0;exitX=0.5;exitY=0;exitDx=0;exitDy=0;" edge="1" parent="1" source="mw7v7OqiFIPlVH7VP6Rh-9" target="mw7v7OqiFIPlVH7VP6Rh-7">
          <mxGeometry relative="1" as="geometry">
            <Array as="points">
              <mxPoint x="940" y="360" />
              <mxPoint x="1100" y="360" />
            </Array>
          </mxGeometry>
        </mxCell>
        <mxCell id="mw7v7OqiFIPlVH7VP6Rh-9" value="&lt;b&gt;Socio&lt;/b&gt;" style="rounded=0;whiteSpace=wrap;html=1;" vertex="1" parent="1">
          <mxGeometry x="880" y="400" width="120" height="60" as="geometry" />
        </mxCell>
        <mxCell id="mw7v7OqiFIPlVH7VP6Rh-10" value="&lt;b&gt;Stagista&lt;/b&gt;" style="rounded=0;whiteSpace=wrap;html=1;" vertex="1" parent="1">
          <mxGeometry x="1200" y="400" width="120" height="60" as="geometry" />
        </mxCell>
        <mxCell id="mw7v7OqiFIPlVH7VP6Rh-12" value="" style="shape=flexArrow;endArrow=classic;html=1;entryX=0.5;entryY=1;entryDx=0;entryDy=0;" edge="1" parent="1">
          <mxGeometry width="50" height="50" relative="1" as="geometry">
            <mxPoint x="180" y="640" as="sourcePoint" />
            <mxPoint x="179.5" y="580" as="targetPoint" />
          </mxGeometry>
        </mxCell>
        <mxCell id="mw7v7OqiFIPlVH7VP6Rh-15" value="" style="shape=flexArrow;endArrow=classic;html=1;entryX=0.5;entryY=1;entryDx=0;entryDy=0;" edge="1" parent="1">
          <mxGeometry width="50" height="50" relative="1" as="geometry">
            <mxPoint x="1100" y="360" as="sourcePoint" />
            <mxPoint x="1099.5" y="300" as="targetPoint" />
          </mxGeometry>
        </mxCell>
        <mxCell id="mw7v7OqiFIPlVH7VP6Rh-21" style="edgeStyle=orthogonalEdgeStyle;rounded=0;orthogonalLoop=1;jettySize=auto;html=1;entryX=0.5;entryY=1;entryDx=0;entryDy=0;endArrow=none;endFill=0;" edge="1" parent="1" source="mw7v7OqiFIPlVH7VP6Rh-33" target="Gx7OEkdX1rcepquk946P-1">
          <mxGeometry relative="1" as="geometry">
            <mxPoint x="-10" y="510" as="sourcePoint" />
          </mxGeometry>
        </mxCell>
        <mxCell id="mw7v7OqiFIPlVH7VP6Rh-35" style="edgeStyle=orthogonalEdgeStyle;rounded=0;orthogonalLoop=1;jettySize=auto;html=1;endArrow=none;endFill=0;" edge="1" parent="1" source="mw7v7OqiFIPlVH7VP6Rh-22" target="mw7v7OqiFIPlVH7VP6Rh-29">
          <mxGeometry relative="1" as="geometry" />
        </mxCell>
        <mxCell id="mw7v7OqiFIPlVH7VP6Rh-22" value="&lt;b&gt;Squadra&lt;/b&gt;" style="rounded=0;whiteSpace=wrap;html=1;" vertex="1" parent="1">
          <mxGeometry x="880" y="120" width="120" height="60" as="geometry" />
        </mxCell>
        <mxCell id="mw7v7OqiFIPlVH7VP6Rh-41" style="edgeStyle=orthogonalEdgeStyle;rounded=0;orthogonalLoop=1;jettySize=auto;html=1;endArrow=none;endFill=0;" edge="1" parent="1" source="mw7v7OqiFIPlVH7VP6Rh-27" target="mw7v7OqiFIPlVH7VP6Rh-40">
          <mxGeometry relative="1" as="geometry" />
        </mxCell>
        <mxCell id="mw7v7OqiFIPlVH7VP6Rh-27" value="&lt;b&gt;Lavoro&lt;/b&gt;" style="rounded=0;whiteSpace=wrap;html=1;" vertex="1" parent="1">
          <mxGeometry x="480" y="120" width="120" height="60" as="geometry" />
        </mxCell>
        <mxCell id="mw7v7OqiFIPlVH7VP6Rh-31" style="edgeStyle=orthogonalEdgeStyle;rounded=0;orthogonalLoop=1;jettySize=auto;html=1;endArrow=none;endFill=0;" edge="1" parent="1" source="mw7v7OqiFIPlVH7VP6Rh-29" target="mw7v7OqiFIPlVH7VP6Rh-27">
          <mxGeometry relative="1" as="geometry" />
        </mxCell>
        <mxCell id="mw7v7OqiFIPlVH7VP6Rh-29" value="&lt;b&gt;Realizzazione&lt;/b&gt;" style="rhombus;whiteSpace=wrap;html=1;" vertex="1" parent="1">
          <mxGeometry x="710" y="110" width="120" height="80" as="geometry" />
        </mxCell>
        <mxCell id="mw7v7OqiFIPlVH7VP6Rh-34" style="edgeStyle=orthogonalEdgeStyle;rounded=0;orthogonalLoop=1;jettySize=auto;html=1;endArrow=none;endFill=0;" edge="1" parent="1" source="mw7v7OqiFIPlVH7VP6Rh-32" target="mw7v7OqiFIPlVH7VP6Rh-22">
          <mxGeometry relative="1" as="geometry">
            <mxPoint x="970" y="150" as="targetPoint" />
          </mxGeometry>
        </mxCell>
        <mxCell id="mw7v7OqiFIPlVH7VP6Rh-32" value="&lt;b&gt;Formazione&lt;/b&gt;" style="rhombus;whiteSpace=wrap;html=1;" vertex="1" parent="1">
          <mxGeometry x="1040" y="110" width="120" height="80" as="geometry" />
        </mxCell>
        <mxCell id="mw7v7OqiFIPlVH7VP6Rh-33" value="&lt;b&gt;Formazione&lt;/b&gt;" style="rhombus;whiteSpace=wrap;html=1;" vertex="1" parent="1">
          <mxGeometry x="-70" y="510" width="120" height="80" as="geometry" />
        </mxCell>
        <mxCell id="mw7v7OqiFIPlVH7VP6Rh-37" style="edgeStyle=orthogonalEdgeStyle;rounded=0;orthogonalLoop=1;jettySize=auto;html=1;endArrow=none;endFill=0;" edge="1" parent="1" source="mw7v7OqiFIPlVH7VP6Rh-36" target="mw7v7OqiFIPlVH7VP6Rh-27">
          <mxGeometry relative="1" as="geometry" />
        </mxCell>
        <mxCell id="mw7v7OqiFIPlVH7VP6Rh-36" value="&lt;b&gt;Commissione&lt;/b&gt;" style="rhombus;whiteSpace=wrap;html=1;" vertex="1" parent="1">
          <mxGeometry x="290" y="110" width="120" height="80" as="geometry" />
        </mxCell>
        <mxCell id="mw7v7OqiFIPlVH7VP6Rh-42" style="edgeStyle=orthogonalEdgeStyle;rounded=0;orthogonalLoop=1;jettySize=auto;html=1;endArrow=none;endFill=0;" edge="1" parent="1" source="mw7v7OqiFIPlVH7VP6Rh-39" target="mw7v7OqiFIPlVH7VP6Rh-40">
          <mxGeometry relative="1" as="geometry" />
        </mxCell>
        <mxCell id="mw7v7OqiFIPlVH7VP6Rh-39" value="&lt;b&gt;Furgone&lt;/b&gt;" style="rounded=0;whiteSpace=wrap;html=1;" vertex="1" parent="1">
          <mxGeometry x="660" y="20" width="120" height="60" as="geometry" />
        </mxCell>
        <mxCell id="mw7v7OqiFIPlVH7VP6Rh-40" value="&lt;b&gt;Utilizzo&lt;/b&gt;" style="rhombus;whiteSpace=wrap;html=1;" vertex="1" parent="1">
          <mxGeometry x="480" y="10" width="120" height="80" as="geometry" />
        </mxCell>
        <mxCell id="mw7v7OqiFIPlVH7VP6Rh-55" style="edgeStyle=orthogonalEdgeStyle;rounded=0;orthogonalLoop=1;jettySize=auto;html=1;endArrow=none;endFill=0;" edge="1" parent="1" source="mw7v7OqiFIPlVH7VP6Rh-43" target="mw7v7OqiFIPlVH7VP6Rh-53">
          <mxGeometry relative="1" as="geometry" />
        </mxCell>
        <mxCell id="mw7v7OqiFIPlVH7VP6Rh-57" style="edgeStyle=orthogonalEdgeStyle;rounded=0;orthogonalLoop=1;jettySize=auto;html=1;endArrow=none;endFill=0;" edge="1" parent="1" source="mw7v7OqiFIPlVH7VP6Rh-43" target="mw7v7OqiFIPlVH7VP6Rh-56">
          <mxGeometry relative="1" as="geometry" />
        </mxCell>
        <mxCell id="mw7v7OqiFIPlVH7VP6Rh-43" value="&lt;b&gt;Preventivo&lt;/b&gt;" style="rounded=0;whiteSpace=wrap;html=1;" vertex="1" parent="1">
          <mxGeometry x="480" y="520" width="120" height="60" as="geometry" />
        </mxCell>
        <mxCell id="mw7v7OqiFIPlVH7VP6Rh-63" style="edgeStyle=orthogonalEdgeStyle;rounded=0;orthogonalLoop=1;jettySize=auto;html=1;entryX=0.5;entryY=0;entryDx=0;entryDy=0;endArrow=none;endFill=0;" edge="1" parent="1" source="mw7v7OqiFIPlVH7VP6Rh-44" target="mw7v7OqiFIPlVH7VP6Rh-51">
          <mxGeometry relative="1" as="geometry" />
        </mxCell>
        <mxCell id="mw7v7OqiFIPlVH7VP6Rh-44" value="&lt;b&gt;Materiale&lt;/b&gt;" style="rounded=0;whiteSpace=wrap;html=1;" vertex="1" parent="1">
          <mxGeometry x="365" y="320" width="120" height="60" as="geometry" />
        </mxCell>
        <mxCell id="mw7v7OqiFIPlVH7VP6Rh-45" value="&lt;b&gt;Tipologia&lt;/b&gt;" style="rounded=0;whiteSpace=wrap;html=1;" vertex="1" parent="1">
          <mxGeometry x="600" y="320" width="120" height="60" as="geometry" />
        </mxCell>
        <mxCell id="mw7v7OqiFIPlVH7VP6Rh-59" style="edgeStyle=orthogonalEdgeStyle;rounded=0;orthogonalLoop=1;jettySize=auto;html=1;entryX=0.25;entryY=1;entryDx=0;entryDy=0;endArrow=none;endFill=0;" edge="1" parent="1" source="mw7v7OqiFIPlVH7VP6Rh-46" target="mw7v7OqiFIPlVH7VP6Rh-27">
          <mxGeometry relative="1" as="geometry">
            <Array as="points">
              <mxPoint x="510" y="240" />
            </Array>
          </mxGeometry>
        </mxCell>
        <mxCell id="mw7v7OqiFIPlVH7VP6Rh-61" style="edgeStyle=orthogonalEdgeStyle;rounded=0;orthogonalLoop=1;jettySize=auto;html=1;endArrow=none;endFill=0;" edge="1" parent="1" source="mw7v7OqiFIPlVH7VP6Rh-46" target="mw7v7OqiFIPlVH7VP6Rh-44">
          <mxGeometry relative="1" as="geometry" />
        </mxCell>
        <mxCell id="mw7v7OqiFIPlVH7VP6Rh-46" value="&lt;b&gt;Materiale in &lt;br&gt;Lavoro&lt;/b&gt;" style="rhombus;whiteSpace=wrap;html=1;" vertex="1" parent="1">
          <mxGeometry x="365" y="200" width="120" height="80" as="geometry" />
        </mxCell>
        <mxCell id="mw7v7OqiFIPlVH7VP6Rh-60" style="edgeStyle=orthogonalEdgeStyle;rounded=0;orthogonalLoop=1;jettySize=auto;html=1;entryX=0.75;entryY=1;entryDx=0;entryDy=0;endArrow=none;endFill=0;" edge="1" parent="1" source="mw7v7OqiFIPlVH7VP6Rh-50" target="mw7v7OqiFIPlVH7VP6Rh-27">
          <mxGeometry relative="1" as="geometry">
            <Array as="points">
              <mxPoint x="570" y="240" />
            </Array>
          </mxGeometry>
        </mxCell>
        <mxCell id="mw7v7OqiFIPlVH7VP6Rh-62" style="edgeStyle=orthogonalEdgeStyle;rounded=0;orthogonalLoop=1;jettySize=auto;html=1;endArrow=none;endFill=0;" edge="1" parent="1" source="mw7v7OqiFIPlVH7VP6Rh-50" target="mw7v7OqiFIPlVH7VP6Rh-45">
          <mxGeometry relative="1" as="geometry" />
        </mxCell>
        <mxCell id="mw7v7OqiFIPlVH7VP6Rh-50" value="&lt;b&gt;Tipologia&lt;br&gt;Lavoro&lt;/b&gt;" style="rhombus;whiteSpace=wrap;html=1;" vertex="1" parent="1">
          <mxGeometry x="600" y="200" width="120" height="80" as="geometry" />
        </mxCell>
        <mxCell id="mw7v7OqiFIPlVH7VP6Rh-65" style="edgeStyle=orthogonalEdgeStyle;rounded=0;orthogonalLoop=1;jettySize=auto;html=1;entryX=0.25;entryY=0;entryDx=0;entryDy=0;endArrow=none;endFill=0;" edge="1" parent="1" source="mw7v7OqiFIPlVH7VP6Rh-51" target="mw7v7OqiFIPlVH7VP6Rh-43">
          <mxGeometry relative="1" as="geometry">
            <Array as="points">
              <mxPoint x="510" y="460" />
            </Array>
          </mxGeometry>
        </mxCell>
        <mxCell id="mw7v7OqiFIPlVH7VP6Rh-51" value="&lt;b&gt;Materiale in Preventivo&lt;/b&gt;" style="rhombus;whiteSpace=wrap;html=1;" vertex="1" parent="1">
          <mxGeometry x="365" y="420" width="120" height="80" as="geometry" />
        </mxCell>
        <mxCell id="mw7v7OqiFIPlVH7VP6Rh-66" style="edgeStyle=orthogonalEdgeStyle;rounded=0;orthogonalLoop=1;jettySize=auto;html=1;entryX=0.75;entryY=0;entryDx=0;entryDy=0;endArrow=none;endFill=0;exitX=0;exitY=0.5;exitDx=0;exitDy=0;" edge="1" parent="1" source="mw7v7OqiFIPlVH7VP6Rh-52" target="mw7v7OqiFIPlVH7VP6Rh-43">
          <mxGeometry relative="1" as="geometry">
            <Array as="points">
              <mxPoint x="570" y="460" />
            </Array>
          </mxGeometry>
        </mxCell>
        <mxCell id="mw7v7OqiFIPlVH7VP6Rh-68" style="edgeStyle=orthogonalEdgeStyle;rounded=0;orthogonalLoop=1;jettySize=auto;html=1;endArrow=none;endFill=0;" edge="1" parent="1" source="mw7v7OqiFIPlVH7VP6Rh-52" target="mw7v7OqiFIPlVH7VP6Rh-45">
          <mxGeometry relative="1" as="geometry" />
        </mxCell>
        <mxCell id="mw7v7OqiFIPlVH7VP6Rh-52" value="&lt;b&gt;Tipologia&lt;br&gt;&amp;nbsp;Preventivo&lt;/b&gt;" style="rhombus;whiteSpace=wrap;html=1;" vertex="1" parent="1">
          <mxGeometry x="600" y="420" width="120" height="80" as="geometry" />
        </mxCell>
        <mxCell id="mw7v7OqiFIPlVH7VP6Rh-53" value="&lt;b&gt;Richiesta&lt;/b&gt;" style="rhombus;whiteSpace=wrap;html=1;" vertex="1" parent="1">
          <mxGeometry x="300" y="510" width="120" height="80" as="geometry" />
        </mxCell>
        <mxCell id="mw7v7OqiFIPlVH7VP6Rh-58" style="edgeStyle=orthogonalEdgeStyle;rounded=0;orthogonalLoop=1;jettySize=auto;html=1;endArrow=none;endFill=0;" edge="1" parent="1" source="mw7v7OqiFIPlVH7VP6Rh-56" target="mw7v7OqiFIPlVH7VP6Rh-9">
          <mxGeometry relative="1" as="geometry">
            <Array as="points">
              <mxPoint x="940" y="550" />
            </Array>
          </mxGeometry>
        </mxCell>
        <mxCell id="mw7v7OqiFIPlVH7VP6Rh-56" value="&lt;b&gt;Stipulazione&lt;/b&gt;" style="rhombus;whiteSpace=wrap;html=1;" vertex="1" parent="1">
          <mxGeometry x="740" y="510" width="120" height="80" as="geometry" />
        </mxCell>
      </root>
    </mxGraphModel>
  </diagram>
</mxfile>
